<svg width="56" height="15" viewBox="0 0 56 15" fill="none" xmlns="http://www.w3.org/2000/svg">
<path d="M16.8001 14.8961H13.0668C13.0668 9.93076 16.0535 0 28.0003 0C39.947 0 42.9337 9.93076 42.9337 14.8961H39.2004C39.2253 11.2001 37.0499 3.77817 28.0003 3.6587C18.9506 3.53923 16.7504 11.1005 16.8001 14.8961Z" fill="#1A1A1A"/>
<path d="M3.73337 14.9708H0C0.672007 -0.149343 14.5975 -1.53069 20.6829 1.04533C19.0103 1.64267 17.3726 3.11113 16.7628 3.77069C6.27953 2.75521 3.70848 10.8143 3.73337 14.9708Z" fill="#1A1A1A"/>
<path d="M25.8723 4.44272C24.2595 4.53232 22.6118 5.50051 21.9896 5.9734C25.6109 8.99743 26.1834 13.1415 26.1336 14.9708H29.867C29.7923 10.0054 27.6643 6.34674 25.8723 4.44272Z" fill="#1A1A1A"/>
<path d="M52.2672 15H56.0005C55.3285 -0.120139 41.4031 -1.50149 35.3177 1.07454C36.9902 1.67188 38.6279 3.14033 39.2377 3.79989C49.721 2.78442 52.2921 10.8435 52.2672 15Z" fill="#1A1A1A"/>
<path d="M30.1283 4.47191C31.7411 4.56151 33.3888 5.5297 34.011 6.00259C30.3896 9.02662 29.8172 13.1707 29.8669 15H26.1336C26.2082 10.0346 28.3363 6.37593 30.1283 4.47191Z" fill="#1A1A1A"/>
</svg>
